<svg xmlns="http://www.w3.org/2000/svg" width="800" height="600"><g><title>Layer 1</title><g><g><g><path stroke-width="4.1px" stroke="#ffb81c" stroke-miterlimit="10" fill="none" d="m395.99999,102.85l-4.3,2.5l0,0s0,0 0,0l-147.4,85.1c-18.5,10.7 -30,30.6 -30,52l0,11.2l0,0l0,103.9c0,18.7 8.8,36.3 23.3,47.5c2.1,1.6 4.4,3.1 6.7,4.5l4.3,2.5s0,0 0,0l0,0l159,85.1c18.5,10.7 30,10.7 48.5,0l84.9,-49l14.7,-8.5c17.1,-9.9 28.2,-27.6 29.8,-47.1c0.1,-1.6 0.2,-3.3 0.2,-4.9l0,-5l0,0l0,-170.3c0,-21.4 -11.5,-41.3 -30,-52l-99.7,-57.5c-18.5,-10.7 -41.6,-10.7 -60.1,0" class="st1"></path><path stroke-width="1.4px" stroke="#ffb81c" stroke-miterlimit="10" fill="none" d="m396.69999,139.05l-3.5,2l0,0s0,0 0,0l-120.4,69.5c-15.1,8.7 -24.5,25 -24.5,42.5l0,9.2l0,0l0,84.9c0,15.3 7.2,29.6 19.1,38.8c1.7,1.3 3.6,2.6 5.5,3.7l3.5,2s0,0 0,0l0,0l129.9,69.6c15.1,8.7 24.5,8.7 39.6,0l69.4,-40.1l12,-7c14,-8.1 23.1,-22.6 24.4,-38.5c0.1,-1.3 0.2,-2.7 0.2,-4l0,-4.1l0,0l0,-139.1c0,-17.5 -9.4,-33.8 -24.5,-42.5l-81.4,-47c-15.1,-8.7 -33.9,-8.7 -49.1,0" class="st5"></path></g></g></g></g></svg>