<svg width="17" height="14" viewBox="0 0 17 14" fill="none" xmlns="http://www.w3.org/2000/svg">
<path d="M10.4668 13.2561L16.0918 7.6311C16.3145 7.42017 16.4258 7.15649 16.4258 6.84009C16.4258 6.52368 16.3145 6.26001 16.0918 6.04907L10.4668 0.424072C10.2559 0.201416 9.99219 0.0900879 9.67578 0.0900879C9.35938 0.0900879 9.0957 0.201416 8.88477 0.424072C8.66211 0.63501 8.55078 0.898682 8.55078 1.21509C8.55078 1.53149 8.66211 1.79517 8.88477 2.0061L12.5762 5.71509H1.80078C1.48438 5.71509 1.21777 5.82349 1.00098 6.04028C0.78418 6.25708 0.675781 6.52368 0.675781 6.84009C0.675781 7.15649 0.78418 7.4231 1.00098 7.63989C1.21777 7.85669 1.48438 7.96509 1.80078 7.96509H12.5762L8.88477 11.6741C8.76758 11.7795 8.68262 11.9026 8.62988 12.0432C8.57715 12.1838 8.55078 12.3245 8.55078 12.4651C8.55078 12.6057 8.57715 12.7463 8.62988 12.887C8.68262 13.0276 8.76758 13.1506 8.88477 13.2561C9.0957 13.4788 9.35938 13.5901 9.67578 13.5901C9.99219 13.5901 10.2559 13.4788 10.4668 13.2561Z" fill="#00717F"/>
</svg>
