<svg width="28" height="25" viewBox="0 0 28 25" fill="none" xmlns="http://www.w3.org/2000/svg">
<path d="M17.4062 24.1863L27.4062 14.1863C27.8021 13.8113 28 13.3425 28 12.78C28 12.2175 27.8021 11.7488 27.4062 11.3738L17.4062 1.37378C17.0312 0.977945 16.5625 0.780029 16 0.780029C15.4375 0.780029 14.9688 0.977945 14.5938 1.37378C14.1979 1.74878 14 2.21753 14 2.78003C14 3.34253 14.1979 3.81128 14.5938 4.18628L21.1562 10.78H2C1.4375 10.78 0.963542 10.9727 0.578125 11.3582C0.192708 11.7436 0 12.2175 0 12.78C0 13.3425 0.192708 13.8165 0.578125 14.2019C0.963542 14.5873 1.4375 14.78 2 14.78H21.1562L14.5938 21.3738C14.3854 21.5613 14.2344 21.78 14.1406 22.03C14.0469 22.28 14 22.53 14 22.78C14 23.03 14.0469 23.28 14.1406 23.53C14.2344 23.78 14.3854 23.9988 14.5938 24.1863C14.9688 24.5821 15.4375 24.78 16 24.78C16.5625 24.78 17.0312 24.5821 17.4062 24.1863Z" fill="#CFD2D3"/>
</svg>
