<svg width="11" height="10" viewBox="0 0 11 10" fill="none" xmlns="http://www.w3.org/2000/svg">
<path d="M6.9375 9.50732L10.6875 5.75732C10.8359 5.6167 10.9102 5.44092 10.9102 5.22998C10.9102 5.01904 10.8359 4.84326 10.6875 4.70264L6.9375 0.952637C6.79688 0.804199 6.62109 0.72998 6.41016 0.72998C6.19922 0.72998 6.02344 0.804199 5.88281 0.952637C5.73438 1.09326 5.66016 1.26904 5.66016 1.47998C5.66016 1.69092 5.73438 1.8667 5.88281 2.00732L8.34375 4.47998H1.16016C0.949219 4.47998 0.771484 4.55225 0.626953 4.69678C0.482422 4.84131 0.410156 5.01904 0.410156 5.22998C0.410156 5.44092 0.482422 5.61865 0.626953 5.76318C0.771484 5.90771 0.949219 5.97998 1.16016 5.97998H8.34375L5.88281 8.45264C5.80469 8.52295 5.74805 8.60498 5.71289 8.69873C5.67773 8.79248 5.66016 8.88623 5.66016 8.97998C5.66016 9.07373 5.67773 9.16748 5.71289 9.26123C5.74805 9.35498 5.80469 9.43701 5.88281 9.50732C6.02344 9.65576 6.19922 9.72998 6.41016 9.72998C6.62109 9.72998 6.79688 9.65576 6.9375 9.50732Z" fill="#CFD2D3"/>
</svg>
