<svg width="188" height="208" viewBox="0 0 188 208" fill="none" xmlns="http://www.w3.org/2000/svg">
<path d="M92.0004 5.55449L89.8504 6.80449L16.1504 49.3545C6.90039 54.7045 1.15039 64.6545 1.15039 75.3545V80.9545V132.904C1.15039 142.254 5.55039 151.054 12.8004 156.654C13.8504 157.454 15.0004 158.204 16.1504 158.904L18.3004 160.154L97.8004 202.704C107.05 208.054 112.8 208.054 122.05 202.704L164.5 178.204L171.85 173.954C180.4 169.004 185.95 160.154 186.75 150.404C186.8 149.604 186.85 148.754 186.85 147.954V145.454V60.3045C186.85 49.6045 181.1 39.6545 171.85 34.3045L122 5.55449C112.75 0.204492 101.2 0.204492 91.9504 5.55449" stroke="#FFB81C" stroke-width="2.05" stroke-miterlimit="10"/>
<path d="M92.3504 23.6543L90.6004 24.6543L30.4004 59.4043C22.8504 63.7543 18.1504 71.9043 18.1504 80.6543V85.2543V127.704C18.1504 135.354 21.7504 142.504 27.7004 147.104C28.5504 147.754 29.5004 148.404 30.4504 148.954L32.2004 149.954L97.1504 184.754C104.7 189.104 109.4 189.104 116.95 184.754L151.65 164.704L157.65 161.204C164.65 157.154 169.2 149.904 169.85 141.954C169.9 141.304 169.95 140.604 169.95 139.954V137.904V68.3543C169.95 59.6043 165.25 51.4543 157.7 47.1043L117 23.6043C109.45 19.2543 100.05 19.2543 92.4504 23.6043" stroke="#FFB81C" stroke-width="0.7" stroke-miterlimit="10"/>
</svg>
