<svg width="25" height="24" viewBox="0 0 25 24" fill="none" xmlns="http://www.w3.org/2000/svg">
<path d="M8.4707 20.9062C8.45508 20.9062 8.43945 20.9102 8.42383 20.918C8.4082 20.9258 8.39258 20.9297 8.37695 20.9297C7.4082 20.4453 6.54102 19.8203 5.77539 19.0547C5.00977 18.2891 4.38477 17.4141 3.90039 16.4297C3.90039 16.4141 3.90039 16.3984 3.90039 16.3828C3.90039 16.3672 3.90039 16.3516 3.90039 16.3359C4.50977 16.5234 5.13086 16.6836 5.76367 16.8164C6.39648 16.9492 7.02539 17.0703 7.65039 17.1797C7.75977 17.8047 7.88086 18.4297 8.01367 19.0547C8.14648 19.6797 8.29883 20.2969 8.4707 20.9062ZM21.7598 16.4531C21.2754 17.4531 20.6309 18.3438 19.8262 19.125C19.0215 19.9062 18.1191 20.5391 17.1191 21.0234C17.3066 20.3828 17.4785 19.7422 17.6348 19.1016C17.791 18.4609 17.9238 17.8203 18.0332 17.1797C18.6582 17.0703 19.2832 16.9492 19.9082 16.8164C20.5332 16.6836 21.1504 16.5234 21.7598 16.3359C21.7441 16.3516 21.7402 16.3711 21.748 16.3945C21.7559 16.418 21.7598 16.4375 21.7598 16.4531ZM21.8535 7.71094C21.2285 7.52344 20.5957 7.35156 19.9551 7.19531C19.3145 7.03906 18.6738 6.90625 18.0332 6.79688C17.9238 6.15625 17.7949 5.51562 17.6465 4.875C17.498 4.23438 17.3223 3.60156 17.1191 2.97656C18.1504 3.47656 19.0723 4.13281 19.8848 4.94531C20.6973 5.75781 21.3535 6.67969 21.8535 7.71094ZM8.4707 3.09375C8.29883 3.70312 8.14648 4.31641 8.01367 4.93359C7.88086 5.55078 7.75977 6.17969 7.65039 6.82031C7.00977 6.91406 6.36914 7.03906 5.72852 7.19531C5.08789 7.35156 4.44727 7.52344 3.80664 7.71094C4.29102 6.71094 4.92383 5.80859 5.70508 5.00391C6.48633 4.19922 7.37695 3.55469 8.37695 3.07031C8.39258 3.07031 8.4082 3.07422 8.42383 3.08203C8.43945 3.08984 8.45508 3.09375 8.4707 3.09375ZM16.3223 6.58594C15.166 6.46094 14.002 6.39844 12.8301 6.39844C11.6582 6.39844 10.4941 6.46094 9.33789 6.58594C9.46289 5.89844 9.60742 5.21484 9.77148 4.53516C9.93555 3.85547 10.1348 3.1875 10.3691 2.53125C10.3691 2.48438 10.3691 2.44531 10.3691 2.41406C10.3691 2.38281 10.3691 2.35156 10.3691 2.32031C10.7754 2.21094 11.1816 2.12891 11.5879 2.07422C11.9941 2.01953 12.4082 1.99219 12.8301 1.99219C13.252 1.99219 13.666 2.01953 14.0723 2.07422C14.4785 2.12891 14.877 2.21094 15.2676 2.32031C15.2676 2.35156 15.2715 2.38281 15.2793 2.41406C15.2871 2.44531 15.291 2.48438 15.291 2.53125C15.5254 3.20312 15.7246 3.875 15.8887 4.54688C16.0527 5.21875 16.1973 5.89844 16.3223 6.58594ZM7.41602 15.4922C6.72852 15.3672 6.04492 15.2227 5.36523 15.0586C4.68555 14.8945 4.01758 14.6953 3.36133 14.4609C3.31445 14.4609 3.27539 14.4609 3.24414 14.4609C3.21289 14.4609 3.18164 14.4609 3.15039 14.4609C3.04102 14.0547 2.95898 13.6484 2.9043 13.2422C2.84961 12.8359 2.82227 12.4219 2.82227 12C2.82227 11.5781 2.84961 11.1641 2.9043 10.7578C2.95898 10.3516 3.04102 9.95312 3.15039 9.5625C3.18164 9.5625 3.21289 9.55859 3.24414 9.55078C3.27539 9.54297 3.31445 9.53906 3.36133 9.53906C4.0332 9.32031 4.70508 9.125 5.37695 8.95312C6.04883 8.78125 6.72852 8.63281 7.41602 8.50781C7.29102 9.66406 7.22852 10.8281 7.22852 12C7.22852 13.1719 7.29102 14.3359 7.41602 15.4922ZM22.8379 12C22.8379 12.4219 22.8105 12.8359 22.7559 13.2422C22.7012 13.6484 22.6191 14.0547 22.5098 14.4609C22.4785 14.4609 22.4473 14.4609 22.416 14.4609C22.3848 14.4609 22.3457 14.4609 22.2988 14.4609C21.6426 14.6797 20.9746 14.875 20.2949 15.0469C19.6152 15.2188 18.9316 15.3672 18.2441 15.4922C18.3691 14.3359 18.4316 13.1719 18.4316 12C18.4316 10.8281 18.3691 9.66406 18.2441 8.50781C18.9316 8.63281 19.6152 8.77734 20.2949 8.94141C20.9746 9.10547 21.6426 9.30469 22.2988 9.53906C22.3457 9.53906 22.3848 9.54297 22.416 9.55078C22.4473 9.55859 22.4785 9.5625 22.5098 9.5625C22.6191 9.95312 22.7012 10.3516 22.7559 10.7578C22.8105 11.1641 22.8379 11.5781 22.8379 12ZM16.3223 17.4141C16.1973 18.1016 16.0527 18.7852 15.8887 19.4648C15.7246 20.1445 15.5254 20.8125 15.291 21.4688C15.291 21.5156 15.2871 21.5547 15.2793 21.5859C15.2715 21.6172 15.2676 21.6484 15.2676 21.6797C14.877 21.7891 14.4785 21.8711 14.0723 21.9258C13.666 21.9805 13.252 22.0078 12.8301 22.0078C12.4082 22.0078 11.9941 21.9805 11.5879 21.9258C11.1816 21.8711 10.7754 21.7891 10.3691 21.6797C10.3691 21.6484 10.3691 21.6172 10.3691 21.5859C10.3691 21.5547 10.3691 21.5156 10.3691 21.4688C10.1504 20.7969 9.95508 20.125 9.7832 19.4531C9.61133 18.7812 9.46289 18.1016 9.33789 17.4141C9.91602 17.4766 10.498 17.5273 11.084 17.5664C11.6699 17.6055 12.252 17.625 12.8301 17.625C13.4082 17.625 13.9902 17.6055 14.5762 17.5664C15.1621 17.5273 15.7441 17.4766 16.3223 17.4141ZM16.6035 15.7734C15.9785 15.8516 15.3457 15.9062 14.7051 15.9375C14.0801 15.9844 13.4551 16.0078 12.8301 16.0078C12.2051 16.0078 11.5801 15.9844 10.9551 15.9375C10.3145 15.9062 9.68164 15.8516 9.05664 15.7734C8.97852 15.1484 8.92383 14.5156 8.89258 13.875C8.8457 13.25 8.82227 12.625 8.82227 12C8.82227 11.375 8.8457 10.75 8.89258 10.125C8.92383 9.48438 8.97852 8.85156 9.05664 8.22656C9.68164 8.14844 10.3145 8.09375 10.9551 8.0625C11.5801 8.01562 12.2051 7.99219 12.8301 7.99219C13.4551 7.99219 14.0801 8.01562 14.7051 8.0625C15.3457 8.09375 15.9785 8.14844 16.6035 8.22656C16.6816 8.85156 16.7363 9.48438 16.7676 10.125C16.8145 10.75 16.8379 11.375 16.8379 12C16.8379 12.625 16.8145 13.25 16.7676 13.875C16.7363 14.5156 16.6816 15.1484 16.6035 15.7734Z" fill="#FBFBFB"/>
</svg>
