<svg width="25" height="25" viewBox="0 0 25 25" fill="none" xmlns="http://www.w3.org/2000/svg">
<path d="M11.9798 3.125C14.6044 3.125 17.1214 4.16759 18.9772 6.02342C20.8331 7.87925 21.8757 10.3963 21.8757 13.0208C21.8757 15.6454 20.8331 18.1624 18.9772 20.0182C17.1214 21.8741 14.6044 22.9167 11.9798 22.9167C9.35528 22.9167 6.83824 21.8741 4.98241 20.0182C3.12658 18.1624 2.08398 15.6454 2.08398 13.0208C2.08398 10.3963 3.12658 7.87925 4.98241 6.02342C6.83824 4.16759 9.35528 3.125 11.9798 3.125ZM11.9798 4.16667C9.63155 4.16667 7.37945 5.09951 5.71898 6.75999C4.0585 8.42047 3.12565 10.6726 3.12565 13.0208C3.12565 15.3691 4.0585 17.6212 5.71898 19.2817C7.37945 20.9422 9.63155 21.875 11.9798 21.875C13.1426 21.875 14.2939 21.646 15.3682 21.201C16.4424 20.7561 17.4185 20.1039 18.2407 19.2817C19.0628 18.4595 19.715 17.4834 20.16 16.4092C20.605 15.3349 20.834 14.1836 20.834 13.0208C20.834 10.6726 19.9011 8.42047 18.2407 6.75999C16.5802 5.09951 14.3281 4.16667 11.9798 4.16667ZM11.459 7.8125C11.459 7.52485 11.6922 7.29167 11.9798 7.29167V7.29167C12.2675 7.29167 12.5007 7.52485 12.5007 7.8125V10.8701C12.5007 12.1493 13.1835 13.3312 14.2916 13.9702L16.9444 15.4998C17.1942 15.6438 17.2801 15.9629 17.1365 16.2128V16.2128C16.9925 16.4634 16.6725 16.5495 16.4223 16.4051L13.44 14.6846C12.2142 13.9774 11.459 12.6698 11.459 11.2546V7.8125Z" fill="#096572"/>
</svg>
