<svg width="128" height="50" viewBox="0 0 128 50" fill="none" xmlns="http://www.w3.org/2000/svg">
<g clip-path="url(#clip0_2_1967)">
<path d="M12.0141 32.8938C12.1271 32.0649 12.1271 30.8215 12.0141 29.9548H1.65234V44.3105H12.0141C12.1271 43.4816 12.1271 42.2005 12.0141 41.3716H5.34488V38.5833H11.8257C11.9387 37.7544 11.9387 36.511 11.8257 35.682H5.34488V32.9315H12.0141V32.8938Z" fill="white"/>
<path d="M22.8277 36.3225L19.7757 35.4559C18.0425 34.9661 17.7033 34.8531 17.7033 34.1372V33.6473C17.7033 32.8184 18.683 32.7054 20.1148 32.7054C21.622 32.7054 22.9407 32.7807 24.9754 33.1198C25.0884 32.2909 25.0884 31.0098 24.9754 30.1809C23.0538 29.7664 21.622 29.691 20.0394 29.691C16.4976 29.691 14.0485 30.5953 14.0485 33.0821V34.5516C14.0485 36.7747 15.0281 37.5283 16.4223 37.9051L19.9264 38.8847C21.3205 39.2615 21.5089 39.2992 21.5089 40.0151V40.6556C21.5089 41.4846 20.4916 41.5976 19.1728 41.5976C17.7787 41.5976 16.1208 41.4846 14.1238 41.2585C14.0108 42.0874 14.0108 43.4815 14.1238 44.3105C15.8948 44.5366 17.7787 44.6119 19.2482 44.6119C22.9407 44.6119 25.2015 43.6699 25.2015 41.2208V39.5629C25.2015 37.3399 24.2972 36.7747 22.8654 36.3225H22.8277Z" fill="white"/>
<path d="M36.8067 29.9171V38.734L31.4563 29.9171C30.1752 29.8418 28.7811 29.8418 27.5 29.9171V44.2728C28.668 44.3858 30.0245 44.3858 31.1925 44.2728V35.682L36.4676 44.2728C37.824 44.3482 39.1428 44.3482 40.4992 44.2728V29.9171C39.2935 29.8418 38.1255 29.8418 36.8067 29.9171Z" fill="white"/>
<path d="M64.0863 29.9548H57.6055V44.3105H64.0863C67.8918 44.3105 70.2656 43.3309 70.2656 40.4296V33.7981C70.2656 30.8968 67.8918 29.9548 64.1239 29.9548H64.0863ZM66.5354 39.7514C66.5354 40.9948 65.405 41.2208 64.0863 41.2208H61.298V33.0445H64.0863C65.4427 33.0445 66.5354 33.2706 66.5354 34.5517V39.7514Z" fill="white"/>
<path d="M50.71 29.9171H47.3189C46.7161 29.9171 46.0755 29.9171 45.661 29.9925L41.8555 44.3482C42.9482 44.4235 44.5684 44.4235 45.6234 44.3482L46.1885 41.7106H51.8027L52.3679 44.3482C53.4229 44.4235 55.0431 44.4235 56.1358 44.3482L52.3302 29.9925C51.8781 29.9925 51.2375 29.9548 50.6347 29.9171H50.71ZM48.2609 32.8184H49.8057L50.1448 34.0995L51.1999 38.734H46.8668L47.9218 34.0995L48.2609 32.8184Z" fill="white"/>
<path d="M34.1697 22.8335H43.0996C44.4183 22.8335 45.511 22.4944 46.2646 21.8162C47.5834 22.5321 48.7137 22.7958 50.2586 22.8335H50.8991C52.2179 22.8335 53.3106 22.4944 54.0642 21.8162C55.3829 22.5321 56.5133 22.7958 58.0581 22.8335H58.6987C61.1855 22.8335 62.8434 21.6654 62.8434 19.254V11.5675C61.9767 11.4544 60.0551 11.4544 59.1885 11.5675V18.6134C59.1885 19.367 58.8871 19.7815 58.0581 19.7815H57.4929C56.5133 19.7815 55.6467 19.6685 55.0438 19.367V12.7355C54.1772 12.6225 52.2556 12.6225 51.3889 12.7355V18.6511C51.3889 19.4047 51.0875 19.8192 50.2586 19.8192H49.6934C48.7137 19.8192 47.8471 19.7061 47.2443 19.4047V12.7732C46.3776 12.6602 44.456 12.6602 43.5894 12.7732V18.6888C43.5894 19.4424 43.288 19.8569 42.459 19.8569H33.6045C32.6248 19.8569 31.7582 19.7438 31.1553 19.4424V11.6805C30.2887 11.5675 28.3671 11.5675 27.5005 11.6805V18.7265C27.5005 19.4801 27.199 19.8945 26.3701 19.8945H21.6602C20.8313 19.8945 20.5299 19.4801 20.5299 18.7265V6.29242C19.6632 6.17938 17.7416 6.17938 16.875 6.29242V19.367C16.875 21.7785 18.5329 22.9465 21.0197 22.9465H26.973C28.2917 22.9465 29.3844 22.6074 30.138 21.9292C31.4568 22.6451 32.5871 22.9088 34.132 22.9465V22.8335H34.1697Z" fill="white"/>
<path d="M14.0489 14.5441C14.0489 12.0949 11.8258 11.153 8.09559 11.153C6.62611 11.153 4.74216 11.2283 2.97125 11.4544C2.85821 12.2833 2.85821 13.6774 2.97125 14.5064C5.00591 14.2803 6.62611 14.1673 8.02023 14.1673C9.339 14.1673 10.3563 14.2803 10.3563 15.1092V18.5004C10.3563 19.2539 10.0549 19.6684 9.22596 19.6684H1.04962C0.936585 20.4973 0.936585 21.8915 1.04962 22.7204H9.8665C12.3533 22.7204 14.0112 21.5524 14.0112 19.1409V14.5441H14.0489Z" fill="white"/>
<path d="M70.3787 26.1492H67.4397V25.3203C67.4397 24.9435 67.9295 24.9058 68.5324 24.9058C69.1729 24.9058 69.399 24.9058 70.0772 24.9812C70.1526 24.6044 70.1526 23.9638 70.0772 23.5494C69.3613 23.474 69.2106 23.474 68.5324 23.474C66.7992 23.474 65.7441 23.9261 65.7441 25.0565V27.581H70.3787C70.454 27.1665 70.454 26.526 70.3787 26.1492Z" fill="white"/>
<path d="M69.9263 22.306V6.17938C69.0597 6.06635 67.1381 6.06635 66.2715 6.17938V22.306C67.1381 22.419 69.0597 22.419 69.9263 22.306Z" fill="white"/>
<path d="M31.1549 9.04298V6.17938C30.2882 6.06635 28.3666 6.06635 27.5 6.17938V9.04298C28.3666 9.15602 30.2882 9.15602 31.1549 9.04298Z" fill="white"/>
<path d="M104.517 0.941995L103.989 1.24343L86.0162 11.6051C83.7554 12.9239 82.3613 15.3354 82.3613 17.9352V19.2917V31.9518C82.3613 34.2125 83.4163 36.3602 85.1873 37.7544C85.451 37.9427 85.7148 38.1311 86.0162 38.3195L86.5437 38.621L104.517 48.9827C106.777 50.3015 109.566 50.3015 111.826 48.9827L122.15 43.0294L123.959 41.9744C126.031 40.7687 127.388 38.621 127.576 36.2472V35.0415V14.318C127.576 11.7182 126.182 9.26905 123.921 7.98796L111.789 0.979674C109.528 -0.33909 106.74 -0.33909 104.479 0.979674M126.107 14.2804V35.0415C126.107 37.9427 123.733 40.2788 120.869 40.2788C120.304 40.2788 119.701 40.1658 119.174 40.0151H119.023C117.629 39.4499 116.235 38.8847 114.878 38.2819C115.368 33.8734 115.632 29.4273 115.632 24.9812C115.632 18.6134 115.104 12.2457 114.125 6.02866V5.87794C113.936 5.12436 113.673 4.44614 113.333 3.8056C113.258 3.69256 113.22 3.6172 113.145 3.50417L123.281 9.34441C125.052 10.3617 126.182 12.2834 126.182 14.3557M91.442 24.9435C94.8707 22.4567 98.4126 20.1206 102.067 18.0106C105.722 15.9005 109.528 13.9789 113.409 12.2834C113.861 16.5034 114.087 20.7235 114.087 24.9812C114.087 29.2389 113.861 33.459 113.409 37.679C109.528 35.9834 105.76 34.0618 102.067 31.9518C98.4126 29.8418 94.8331 27.5057 91.442 25.0189M104.78 2.56219C107.305 1.13039 110.508 1.99701 111.939 4.48382C112.241 4.97365 112.429 5.53883 112.542 6.10401V6.25473C112.806 7.72421 113.032 9.19369 113.183 10.7008C109.113 12.4718 105.119 14.4687 101.276 16.7295C95.775 19.8945 90.5 23.5494 85.6017 27.5434L85.4887 27.6564C84.9235 28.1462 84.4337 28.7114 84.0569 29.3896C83.9815 29.5027 83.9438 29.578 83.9062 29.6911V18.0106C83.9062 15.9382 84.9989 14.0166 86.8074 12.9993L104.78 2.59987V2.56219ZM87.335 37.2645C86.1292 36.5486 85.2626 35.4183 84.8858 34.0618C84.509 32.7054 84.6974 31.2736 85.4133 30.0678C85.7148 29.578 86.0539 29.1259 86.506 28.7491L86.619 28.636C87.7871 27.6941 88.9551 26.7898 90.1609 25.8855C93.7404 28.523 97.4706 30.9721 101.314 33.1952C104.592 35.0791 107.983 36.8124 111.412 38.3949C113.748 39.4499 116.122 40.4296 118.495 41.3715H118.646C119.362 41.673 120.078 41.786 120.832 41.786H121.171L111.035 47.6262C109.264 48.6436 107.041 48.6436 105.232 47.6262L100.297 44.7626L87.2596 37.2268H87.335V37.2645Z" fill="white"/>
</g>
<defs>
<clipPath id="clip0_2_1967">
<rect width="126.601" height="50" fill="white" transform="translate(0.974609)"/>
</clipPath>
</defs>
</svg>
